<svg width="619" height="80" viewBox="0 0 619 80" fill="none" xmlns="http://www.w3.org/2000/svg">
<path d="M244.568 66.6L243.894 63.4125H243.73C242.613 64.8155 241.496 65.769 240.379 66.2731C239.276 66.7634 237.893 67.0086 236.231 67.0086C234.011 67.0086 232.268 66.4365 231.001 65.2923C229.747 64.1481 229.121 62.5202 229.121 60.4089C229.121 55.8864 232.737 53.5162 239.971 53.2983L243.771 53.1757V51.7863C243.771 50.0291 243.39 48.735 242.627 47.9041C241.878 47.0595 240.672 46.6372 239.01 46.6372C237.144 46.6372 235.033 47.2093 232.676 48.3536L231.634 45.7586C232.737 45.1593 233.943 44.6893 235.251 44.3488C236.572 44.0082 237.893 43.838 239.215 43.838C241.884 43.838 243.86 44.4305 245.14 45.6156C246.434 46.8007 247.081 48.7009 247.081 51.3163V66.6H244.568ZM236.906 64.2094C239.017 64.2094 240.672 63.6304 241.871 62.4726C243.083 61.3147 243.689 59.6937 243.689 57.6096V55.5868L240.298 55.7298C237.6 55.8251 235.653 56.2474 234.454 56.9966C233.269 57.7322 232.676 58.8832 232.676 60.4497C232.676 61.6757 233.044 62.6088 233.78 63.249C234.529 63.8892 235.571 64.2094 236.906 64.2094ZM269.204 63.5964H269.021C267.454 65.8712 265.111 67.0086 261.992 67.0086C259.063 67.0086 256.781 66.0074 255.147 64.005C253.526 62.0026 252.715 59.1557 252.715 55.4642C252.715 51.7727 253.533 48.9053 255.167 46.862C256.802 44.8187 259.077 43.7971 261.992 43.7971C265.029 43.7971 267.359 44.9005 268.98 47.1072H269.245L269.102 45.493L269.021 43.9197V34.8067H272.412V66.6H269.654L269.204 63.5964ZM262.421 64.1685C264.736 64.1685 266.412 63.5419 267.447 62.2887C268.496 61.0219 269.021 58.9854 269.021 56.1793V55.4642C269.021 52.2903 268.489 50.0291 267.427 48.6805C266.378 47.3183 264.696 46.6372 262.38 46.6372C260.391 46.6372 258.865 47.4137 257.803 48.9666C256.754 50.5058 256.23 52.6853 256.23 55.505C256.23 58.3656 256.754 60.5247 257.803 61.9822C258.852 63.4397 260.391 64.1685 262.421 64.1685ZM284.401 66.6L275.901 44.2057H279.538L284.36 57.487C285.45 60.5928 286.09 62.6088 286.281 63.5351H286.444C286.594 62.8131 287.064 61.3215 287.854 59.0603C288.658 56.7855 290.449 51.8339 293.228 44.2057H296.865L288.365 66.6H284.401ZM309.793 67.0086C306.483 67.0086 303.868 66.0006 301.947 63.9846C300.04 61.9686 299.087 59.1693 299.087 55.5868C299.087 51.977 299.972 49.1096 301.743 46.9846C303.527 44.8596 305.918 43.7971 308.915 43.7971C311.721 43.7971 313.941 44.7234 315.576 46.5759C317.21 48.4149 318.028 50.8464 318.028 53.8704V56.0158H302.601C302.669 58.6448 303.33 60.6404 304.583 62.0026C305.85 63.3648 307.627 64.0459 309.916 64.0459C312.327 64.0459 314.711 63.5419 317.067 62.5339V65.5579C315.869 66.0755 314.731 66.4433 313.655 66.6613C312.593 66.8928 311.305 67.0086 309.793 67.0086ZM308.874 46.6372C307.076 46.6372 305.639 47.223 304.563 48.3944C303.5 49.5659 302.873 51.1869 302.683 53.2574H314.391C314.391 51.1188 313.914 49.4842 312.96 48.3536C312.007 47.2093 310.645 46.6372 308.874 46.6372ZM333.919 43.7971C334.913 43.7971 335.806 43.8788 336.596 44.0423L336.126 47.1889C335.199 46.9846 334.382 46.8824 333.674 46.8824C331.862 46.8824 330.309 47.618 329.015 49.0892C327.735 50.5603 327.094 52.3924 327.094 54.5856V66.6H323.703V44.2057H326.502L326.89 48.3536H327.054C327.885 46.896 328.886 45.7722 330.057 44.9822C331.229 44.1921 332.516 43.7971 333.919 43.7971ZM347.89 64.2094C348.489 64.2094 349.068 64.1685 349.626 64.0868C350.185 63.9914 350.628 63.896 350.954 63.8007V66.3956C350.587 66.5727 350.042 66.7158 349.32 66.8247C348.611 66.9473 347.971 67.0086 347.399 67.0086C343.067 67.0086 340.902 64.727 340.902 60.1637V46.8416H337.694V45.2069L340.902 43.7971L342.332 39.0158H344.293V44.2057H350.791V46.8416H344.293V60.0206C344.293 61.3692 344.613 62.4045 345.254 63.1264C345.894 63.8484 346.773 64.2094 347.89 64.2094ZM358.713 66.6H355.322V44.2057H358.713V66.6ZM355.036 38.1372C355.036 37.3608 355.226 36.7955 355.608 36.4413C355.989 36.0735 356.466 35.8896 357.038 35.8896C357.583 35.8896 358.053 36.0735 358.448 36.4413C358.843 36.8091 359.04 37.3744 359.04 38.1372C359.04 38.9001 358.843 39.4722 358.448 39.8536C358.053 40.2214 357.583 40.4053 357.038 40.4053C356.466 40.4053 355.989 40.2214 355.608 39.8536C355.226 39.4722 355.036 38.9001 355.036 38.1372ZM380.224 60.4906C380.224 62.5747 379.447 64.1821 377.894 65.3127C376.341 66.4433 374.162 67.0086 371.356 67.0086C368.386 67.0086 366.071 66.5387 364.409 65.5988V62.4521C365.485 62.997 366.636 63.4261 367.862 63.7394C369.101 64.0527 370.293 64.2094 371.438 64.2094C373.208 64.2094 374.571 63.9301 375.524 63.3716C376.478 62.7995 376.954 61.9345 376.954 60.7767C376.954 59.9049 376.573 59.1625 375.81 58.5495C375.061 57.9229 373.59 57.1873 371.397 56.3428C369.313 55.5663 367.828 54.892 366.942 54.3199C366.071 53.7342 365.417 53.0735 364.981 52.338C364.559 51.6024 364.347 50.7238 364.347 49.7021C364.347 47.8768 365.09 46.4397 366.575 45.3908C368.059 44.3283 370.096 43.7971 372.684 43.7971C375.095 43.7971 377.452 44.2875 379.754 45.2682L378.548 48.0267C376.301 47.1004 374.264 46.6372 372.439 46.6372C370.831 46.6372 369.619 46.8892 368.802 47.3932C367.984 47.8972 367.576 48.592 367.576 49.4774C367.576 50.0767 367.726 50.5876 368.025 51.0098C368.339 51.4321 368.836 51.8339 369.517 52.2154C370.198 52.5968 371.506 53.1485 373.44 53.8704C376.096 54.8376 377.888 55.8115 378.814 56.7923C379.754 57.7731 380.224 59.0058 380.224 60.4906ZM389.025 66.6H385.633V44.2057H389.025V66.6ZM385.347 38.1372C385.347 37.3608 385.538 36.7955 385.919 36.4413C386.3 36.0735 386.777 35.8896 387.349 35.8896C387.894 35.8896 388.364 36.0735 388.759 36.4413C389.154 36.8091 389.352 37.3744 389.352 38.1372C389.352 38.9001 389.154 39.4722 388.759 39.8536C388.364 40.2214 387.894 40.4053 387.349 40.4053C386.777 40.4053 386.3 40.2214 385.919 39.8536C385.538 39.4722 385.347 38.9001 385.347 38.1372ZM411.414 66.6V52.1132C411.414 50.2879 410.998 48.9257 410.167 48.0267C409.336 47.1276 408.035 46.6781 406.265 46.6781C403.922 46.6781 402.205 47.3115 401.116 48.5783C400.026 49.8452 399.481 51.9361 399.481 54.8512V66.6H396.089V44.2057H398.847L399.399 47.2706H399.563C400.257 46.1673 401.231 45.3159 402.485 44.7166C403.738 44.1036 405.134 43.7971 406.673 43.7971C409.37 43.7971 411.4 44.4509 412.762 45.7586C414.124 47.0527 414.805 49.13 414.805 51.9906V66.6H411.414ZM439.994 44.2057V46.3512L435.846 46.8416C436.227 47.3183 436.568 47.9449 436.867 48.7214C437.167 49.4842 437.317 50.3492 437.317 51.3163C437.317 53.5094 436.568 55.2598 435.069 56.5675C433.571 57.8752 431.514 58.5291 428.899 58.5291C428.231 58.5291 427.605 58.4746 427.019 58.3656C425.575 59.1284 424.853 60.0888 424.853 61.2466C424.853 61.8596 425.105 62.3159 425.609 62.6156C426.113 62.9017 426.978 63.0447 428.204 63.0447H432.168C434.592 63.0447 436.452 63.5555 437.746 64.5771C439.054 65.5988 439.707 67.0835 439.707 69.0315C439.707 71.5106 438.713 73.3973 436.724 74.6913C434.736 75.999 431.834 76.6529 428.02 76.6529C425.091 76.6529 422.83 76.108 421.236 75.0182C419.656 73.9285 418.866 72.3892 418.866 70.4005C418.866 69.0383 419.302 67.86 420.174 66.8656C421.046 65.8712 422.272 65.1969 423.852 64.8428C423.28 64.5839 422.796 64.1821 422.401 63.6372C422.02 63.0924 421.829 62.4589 421.829 61.737C421.829 60.9197 422.047 60.2045 422.483 59.5916C422.919 58.9786 423.607 58.386 424.546 57.8139C423.389 57.3372 422.442 56.5267 421.706 55.3824C420.984 54.2382 420.623 52.9305 420.623 51.4593C420.623 49.0074 421.359 47.1208 422.83 45.7995C424.301 44.4646 426.385 43.7971 429.082 43.7971C430.254 43.7971 431.31 43.9333 432.25 44.2057H439.994ZM422.135 70.3596C422.135 71.5719 422.646 72.4914 423.668 73.118C424.689 73.7446 426.154 74.0579 428.061 74.0579C430.908 74.0579 433.012 73.6288 434.375 72.7706C435.75 71.9261 436.438 70.7751 436.438 69.3175C436.438 68.1052 436.064 67.2606 435.314 66.7839C434.565 66.3207 433.155 66.0892 431.085 66.0892H427.019C425.48 66.0892 424.281 66.4569 423.423 67.1925C422.564 67.9281 422.135 68.9838 422.135 70.3596ZM423.974 51.3776C423.974 52.9441 424.417 54.1292 425.302 54.9329C426.188 55.7366 427.421 56.1384 429.001 56.1384C432.311 56.1384 433.966 54.5311 433.966 51.3163C433.966 47.9517 432.29 46.2694 428.939 46.2694C427.346 46.2694 426.12 46.6985 425.262 47.5567C424.403 48.4149 423.974 49.6885 423.974 51.3776ZM465.626 67.0086C464.168 67.0086 462.833 66.743 461.621 66.2118C460.422 65.6669 459.414 64.836 458.597 63.719H458.352C458.515 65.0267 458.597 66.2662 458.597 67.4377V76.6529H455.205V44.2057H457.963L458.433 47.2706H458.597C459.469 46.0447 460.484 45.1593 461.641 44.6144C462.799 44.0695 464.127 43.7971 465.626 43.7971C468.595 43.7971 470.884 44.8119 472.491 46.8416C474.112 48.8712 474.923 51.7182 474.923 55.3824C474.923 59.0603 474.099 61.9209 472.45 63.9642C470.816 65.9938 468.541 67.0086 465.626 67.0086ZM465.135 46.6781C462.847 46.6781 461.192 47.3115 460.17 48.5783C459.149 49.8452 458.624 51.8612 458.597 54.6264V55.3824C458.597 58.5291 459.121 60.7835 460.17 62.1456C461.219 63.4942 462.901 64.1685 465.217 64.1685C467.151 64.1685 468.663 63.3852 469.753 61.8187C470.857 60.2522 471.408 58.0932 471.408 55.3416C471.408 52.5491 470.857 50.4105 469.753 48.9257C468.663 47.4273 467.124 46.6781 465.135 46.6781ZM494.512 66.6L493.838 63.4125H493.674C492.557 64.8155 491.44 65.769 490.323 66.2731C489.22 66.7634 487.837 67.0086 486.176 67.0086C483.955 67.0086 482.212 66.4365 480.945 65.2923C479.692 64.1481 479.065 62.5202 479.065 60.4089C479.065 55.8864 482.682 53.5162 489.915 53.2983L493.715 53.1757V51.7863C493.715 50.0291 493.334 48.735 492.571 47.9041C491.822 47.0595 490.616 46.6372 488.954 46.6372C487.088 46.6372 484.977 47.2093 482.62 48.3536L481.578 45.7586C482.682 45.1593 483.887 44.6893 485.195 44.3488C486.516 44.0082 487.837 43.838 489.159 43.838C491.829 43.838 493.804 44.4305 495.084 45.6156C496.378 46.8007 497.025 48.7009 497.025 51.3163V66.6H494.512ZM486.85 64.2094C488.961 64.2094 490.616 63.6304 491.815 62.4726C493.027 61.3147 493.634 59.6937 493.634 57.6096V55.5868L490.242 55.7298C487.545 55.8251 485.597 56.2474 484.398 56.9966C483.213 57.7322 482.62 58.8832 482.62 60.4497C482.62 61.6757 482.988 62.6088 483.724 63.249C484.473 63.8892 485.515 64.2094 486.85 64.2094ZM514.122 43.7971C515.117 43.7971 516.009 43.8788 516.799 44.0423L516.329 47.1889C515.403 46.9846 514.585 46.8824 513.877 46.8824C512.065 46.8824 510.512 47.618 509.218 49.0892C507.938 50.5603 507.298 52.3924 507.298 54.5856V66.6H503.906V44.2057H506.705L507.093 48.3536H507.257C508.088 46.896 509.089 45.7722 510.26 44.9822C511.432 44.1921 512.719 43.7971 514.122 43.7971ZM528.093 64.2094C528.692 64.2094 529.271 64.1685 529.83 64.0868C530.388 63.9914 530.831 63.896 531.158 63.8007V66.3956C530.79 66.5727 530.245 66.7158 529.523 66.8247C528.815 66.9473 528.174 67.0086 527.602 67.0086C523.271 67.0086 521.105 64.727 521.105 60.1637V46.8416H517.897V45.2069L521.105 43.7971L522.535 39.0158H524.497V44.2057H530.994V46.8416H524.497V60.0206C524.497 61.3692 524.817 62.4045 525.457 63.1264C526.097 63.8484 526.976 64.2094 528.093 64.2094ZM550.849 66.6V52.1132C550.849 50.2879 550.434 48.9257 549.603 48.0267C548.772 47.1276 547.471 46.6781 545.7 46.6781C543.357 46.6781 541.641 47.3115 540.551 48.5783C539.462 49.8452 538.917 51.9361 538.917 54.8512V66.6H535.525V44.2057H538.283L538.835 47.2706H538.998C539.693 46.1673 540.667 45.3159 541.92 44.7166C543.173 44.1036 544.57 43.7971 546.109 43.7971C548.806 43.7971 550.836 44.4509 552.198 45.7586C553.56 47.0527 554.241 49.13 554.241 51.9906V66.6H550.849ZM570.561 67.0086C567.251 67.0086 564.636 66.0006 562.715 63.9846C560.808 61.9686 559.855 59.1693 559.855 55.5868C559.855 51.977 560.74 49.1096 562.511 46.9846C564.295 44.8596 566.686 43.7971 569.683 43.7971C572.489 43.7971 574.709 44.7234 576.344 46.5759C577.979 48.4149 578.796 50.8464 578.796 53.8704V56.0158H563.369C563.437 58.6448 564.098 60.6404 565.351 62.0026C566.618 63.3648 568.396 64.0459 570.684 64.0459C573.095 64.0459 575.479 63.5419 577.836 62.5339V65.5579C576.637 66.0755 575.499 66.4433 574.423 66.6613C573.361 66.8928 572.073 67.0086 570.561 67.0086ZM569.642 46.6372C567.844 46.6372 566.407 47.223 565.331 48.3944C564.268 49.5659 563.642 51.1869 563.451 53.2574H575.159C575.159 51.1188 574.682 49.4842 573.729 48.3536C572.775 47.2093 571.413 46.6372 569.642 46.6372ZM594.687 43.7971C595.681 43.7971 596.574 43.8788 597.364 44.0423L596.894 47.1889C595.968 46.9846 595.15 46.8824 594.442 46.8824C592.63 46.8824 591.077 47.618 589.783 49.0892C588.503 50.5603 587.863 52.3924 587.863 54.5856V66.6H584.471V44.2057H587.27L587.658 48.3536H587.822C588.653 46.896 589.654 45.7722 590.825 44.9822C591.997 44.1921 593.284 43.7971 594.687 43.7971ZM615.87 60.4906C615.87 62.5747 615.094 64.1821 613.541 65.3127C611.988 66.4433 609.809 67.0086 607.003 67.0086C604.033 67.0086 601.717 66.5387 600.055 65.5988V62.4521C601.132 62.997 602.283 63.4261 603.509 63.7394C604.748 64.0527 605.94 64.2094 607.084 64.2094C608.855 64.2094 610.217 63.9301 611.171 63.3716C612.124 62.7995 612.601 61.9345 612.601 60.7767C612.601 59.9049 612.22 59.1625 611.457 58.5495C610.708 57.9229 609.237 57.1873 607.043 56.3428C604.959 55.5663 603.475 54.892 602.589 54.3199C601.717 53.7342 601.063 53.0735 600.628 52.338C600.205 51.6024 599.994 50.7238 599.994 49.7021C599.994 47.8768 600.737 46.4397 602.221 45.3908C603.706 44.3283 605.743 43.7971 608.331 43.7971C610.742 43.7971 613.098 44.2875 615.4 45.2682L614.195 48.0267C611.947 47.1004 609.911 46.6372 608.086 46.6372C606.478 46.6372 605.266 46.8892 604.449 47.3932C603.631 47.8972 603.223 48.592 603.223 49.4774C603.223 50.0767 603.372 50.5876 603.672 51.0098C603.985 51.4321 604.483 51.8339 605.164 52.2154C605.845 52.5968 607.152 53.1485 609.087 53.8704C611.743 54.8376 613.534 55.8115 614.461 56.7923C615.4 57.7731 615.87 59.0058 615.87 60.4906Z" fill="#2B273C"/>
<path d="M165.175 47.9149L168.505 47.1511C168.575 47.1351 168.691 47.1085 168.832 47.0633C169.751 46.8178 170.538 46.2262 171.027 45.4131C171.517 44.6 171.671 43.6288 171.456 42.7042C171.452 42.6839 171.447 42.6647 171.442 42.6444C171.333 42.2012 171.141 41.7824 170.876 41.4095C170.503 40.9374 170.04 40.5422 169.515 40.2461C168.897 39.8943 168.251 39.5953 167.582 39.3525L163.929 38.0207C161.879 37.2594 159.829 36.5174 157.76 35.7936C156.418 35.3166 155.281 34.8982 154.293 34.5928C154.107 34.5353 153.901 34.478 153.734 34.4204C152.539 34.0546 151.7 33.9027 150.991 33.897C150.516 33.8793 150.044 33.9647 149.607 34.1473C149.151 34.3429 148.741 34.6323 148.405 34.9965C148.238 35.1859 148.081 35.3838 147.935 35.5896C147.797 35.7992 147.671 36.016 147.557 36.2391C147.432 36.4784 147.324 36.7266 147.234 36.9817C146.558 38.9776 146.223 41.0728 146.241 43.1802C146.255 45.0855 146.309 47.5309 147.361 49.1895C147.615 49.6151 147.955 49.9831 148.36 50.2697C149.109 50.7856 149.866 50.8541 150.653 50.9113C151.829 50.9966 152.968 50.7097 154.104 50.4492L165.166 47.9117L165.175 47.9149Z" fill="#FF1A1A"/>
<path d="M202.335 30.3044C201.423 28.4017 200.199 26.6643 198.713 25.1643C198.521 24.9739 198.315 24.7977 198.097 24.6371C197.896 24.4866 197.687 24.3466 197.471 24.2178C197.249 24.0964 197.02 23.9868 196.786 23.8896C196.324 23.7085 195.829 23.6266 195.334 23.6492C194.86 23.6756 194.397 23.8046 193.978 24.0273C193.344 24.3413 192.657 24.8464 191.743 25.6925C191.617 25.8173 191.459 25.9582 191.316 26.0911C190.563 26.797 189.725 27.6674 188.727 28.681C187.186 30.2328 185.669 31.7931 184.161 33.3706L181.462 36.1592C180.968 36.6687 180.518 37.2192 180.118 37.8047C179.776 38.2995 179.535 38.8561 179.407 39.4433C179.333 39.8937 179.344 40.354 179.44 40.8004C179.445 40.8206 179.45 40.8399 179.454 40.8601C179.669 41.7848 180.234 42.591 181.032 43.1088C181.83 43.6267 182.798 43.8158 183.732 43.6363C183.88 43.6152 183.995 43.5899 184.064 43.5728L198.462 40.2704C199.596 40.0101 200.748 39.7716 201.767 39.1828C202.45 38.7883 203.1 38.3972 203.546 37.6073C203.784 37.1734 203.928 36.6943 203.968 36.2011C204.187 34.2455 203.16 32.0235 202.335 30.3044Z" fill="#FF1A1A"/>
<path d="M176.567 36.3363C177.609 35.0315 177.604 33.0853 177.696 31.4944C178.005 26.1787 178.331 20.8624 178.588 15.5438C178.686 13.5292 178.902 11.5421 178.78 9.51204C178.679 7.83731 178.665 5.9146 177.603 4.53933C175.728 2.11416 171.735 2.30966 169.01 2.68306C168.176 2.79776 167.34 2.95222 166.51 3.14989C165.681 3.34756 164.861 3.56353 164.058 3.81912C161.444 4.6702 157.77 6.23346 157.15 9.23513C156.801 10.9321 157.634 12.669 158.28 14.2185C159.064 16.0969 160.133 17.7892 161.108 19.5575C163.686 24.226 166.311 28.8654 168.929 33.5097C169.711 34.896 170.563 36.6519 172.074 37.3712C172.174 37.4148 172.276 37.4533 172.38 37.4866C173.057 37.7428 173.795 37.7927 174.5 37.63C174.543 37.6202 174.585 37.6106 174.626 37.6011C175.278 37.4251 175.867 37.0726 176.329 36.5827C176.413 36.5048 176.492 36.4225 176.567 36.3363Z" fill="#FF1A1A"/>
<path d="M175.292 50.5542C174.885 49.9829 174.306 49.5546 173.64 49.3304C172.974 49.1063 172.254 49.0977 171.584 49.3061C171.426 49.3581 171.273 49.4214 171.124 49.4956C170.895 49.6118 170.676 49.7476 170.47 49.9015C169.871 50.3438 169.366 50.919 168.907 51.4955C168.79 51.6427 168.684 51.8387 168.545 51.9643L166.233 55.1361C164.922 56.913 163.629 58.6943 162.347 60.5041C161.511 61.6723 160.788 62.659 160.216 63.5319C160.108 63.6964 159.995 63.8799 159.893 64.0261C159.208 65.0828 158.82 65.8539 158.621 66.5412C158.472 66.9977 158.425 67.4815 158.484 67.9584C158.548 68.4551 158.716 68.933 158.978 69.3608C159.117 69.5755 159.266 69.7831 159.426 69.9828C159.593 70.1748 159.769 70.3578 159.955 70.5309C160.154 70.7198 160.366 70.8937 160.591 71.0513C162.19 72.1607 163.941 72.9584 165.781 73.5754C167.313 74.0834 168.906 74.3881 170.517 74.4815C170.791 74.4955 171.066 74.4899 171.339 74.4645C171.592 74.4427 171.844 74.4077 172.094 74.3596C172.343 74.3018 172.589 74.2308 172.831 74.1468C173.301 73.972 173.729 73.7005 174.088 73.3501C174.427 73.0116 174.688 72.6033 174.852 72.1536C175.119 71.489 175.295 70.6451 175.409 69.392C175.419 69.2138 175.444 69.0002 175.462 68.8043C175.552 67.7645 175.593 66.5432 175.659 65.1073C175.77 62.8988 175.857 60.7001 175.925 58.4951C175.925 58.4951 176.071 54.5765 176.07 54.5744C176.103 53.6714 176.075 52.6708 175.822 51.7714C175.712 51.3403 175.533 50.9294 175.292 50.5542V50.5542Z" fill="#FF1A1A"/>
<path d="M201.456 56.6945C200.972 56.1659 200.287 55.6388 199.206 54.987C199.051 54.9002 198.868 54.7843 198.699 54.6834C197.799 54.1437 196.716 53.5757 195.45 52.8897C193.505 51.8244 191.559 50.7859 189.594 49.7559L186.123 47.9193C185.943 47.8668 185.76 47.7371 185.591 47.6555C184.924 47.3373 184.217 47.0401 183.483 46.9035C183.23 46.8548 182.974 46.8281 182.717 46.8235C182.551 46.8213 182.385 46.8313 182.22 46.8531C181.527 46.9596 180.885 47.2817 180.386 47.7735C179.888 48.2653 179.557 48.9018 179.443 49.5922C179.391 50.0313 179.407 50.4759 179.492 50.9101C179.662 51.8303 180.075 52.7408 180.503 53.5381L182.359 56.9999C183.391 58.9524 184.436 60.8935 185.508 62.8286C186.199 64.091 186.774 65.171 187.313 66.0665C187.415 66.2349 187.531 66.4162 187.618 66.5721C188.274 67.6486 188.8 68.3261 189.334 68.8123C189.68 69.145 190.094 69.3985 190.548 69.555C191.025 69.713 191.53 69.7693 192.03 69.7204C192.284 69.6906 192.537 69.6472 192.786 69.5906C193.032 69.525 193.275 69.4467 193.512 69.3559C193.769 69.2598 194.018 69.1453 194.258 69.0133C195.665 68.2277 196.963 67.2602 198.116 66.136C199.5 64.7794 200.723 63.2998 201.673 61.6055C201.805 61.3659 201.92 61.117 202.016 60.8607C202.105 60.6236 202.183 60.3821 202.248 60.1371C202.304 59.8881 202.347 59.6363 202.376 59.3828C202.423 58.8849 202.365 58.3826 202.204 57.9085C202.047 57.4542 201.792 57.0398 201.456 56.6945V56.6945Z" fill="#FF1A1A"/>
<path fill-rule="evenodd" clip-rule="evenodd" d="M81.9266 23.042C81.9266 20.1921 84.2592 17.864 87.0745 17.864C89.8496 17.864 92.1019 20.1921 92.2225 23.0822V63.5027C92.2225 66.3526 89.8899 68.6807 87.0745 68.6807C84.1788 68.6807 81.9266 66.3526 81.9266 63.5027V23.042ZM77.1391 48.0088C77.0989 48.8115 76.8978 50.2967 75.8521 51.3805C74.726 52.5445 73.1977 52.8255 72.3129 52.8255C68.6343 52.8456 64.9557 52.8556 61.277 52.8656L61.2728 52.8656C57.5928 52.8757 53.9128 52.8857 50.2328 52.9058C50.5546 53.9093 51.1981 55.4346 52.6459 56.8395C53.5307 57.6824 54.3753 58.1641 54.7373 58.3648C55.1797 58.6457 56.708 59.4485 58.5983 59.4485C60.6092 59.4485 62.3788 58.8063 64.1083 57.9232L64.2528 57.8487C65.4545 57.229 66.6948 56.5893 68.0095 56.3578C69.2965 56.1571 70.6639 56.3979 71.6694 57.281C72.8759 58.3246 73.3586 59.8499 72.9161 61.4154C72.3933 63.1815 70.9052 64.7068 69.3367 65.63C68.4519 66.1518 67.4866 66.5934 66.5214 66.9546C65.2746 67.3961 63.9876 67.7173 62.7006 67.918C61.4136 68.1187 60.0864 68.1989 58.7592 68.1588H58.7591C58.1156 68.1588 57.4319 68.1588 56.7482 68.0785C56.0243 67.9982 55.3004 67.8377 54.6166 67.6771C53.4905 67.4363 52.4448 67.075 51.3991 66.5934C50.3937 66.1518 49.3882 65.5899 48.4632 64.9476C47.5381 64.3054 46.6936 63.5428 45.8892 62.74C45.125 61.9372 44.4011 61.0541 43.7576 60.0908C41.5858 56.7993 40.5803 52.7452 40.7814 48.8115C40.9423 44.9582 42.2293 41.1048 44.562 37.9739C44.8146 37.5817 45.1063 37.2482 45.3826 36.9324L45.3828 36.9322L45.3833 36.9316C45.5027 36.7952 45.6191 36.662 45.7283 36.5289C48.609 33.0237 52.4576 31.9144 54.0451 31.4568L54.134 31.4311C58.6787 30.1467 62.4593 30.9896 63.9876 31.4311C64.7517 31.6318 69.0551 32.9564 72.3933 36.5289C72.5542 36.6894 72.9966 37.2112 73.5596 37.9739C75.6743 40.841 76.4036 43.5106 76.6507 44.415L76.6565 44.4363C76.8978 45.3194 77.1391 46.5236 77.1391 48.0088ZM53.5307 41.3857C51.1981 43.2723 50.5546 45.6807 50.3937 46.4433H67.929C67.7682 45.7208 67.0844 43.2723 64.7517 41.3857C62.3788 39.4992 59.8853 39.3788 59.1211 39.3788C58.357 39.3788 55.8634 39.4992 53.5307 41.3857ZM120.214 30.7488C115.629 30.7488 111.446 32.7959 108.47 36.1275V36.0071C108.349 33.3177 106.097 31.1502 103.362 31.1502C100.507 31.1502 98.2141 33.4381 98.2141 36.288V74.8621C98.2141 77.712 100.507 80 103.362 80C106.218 80 108.51 77.712 108.51 74.8621V73.377V62.8203C111.486 66.1117 115.629 68.199 120.254 68.199C129.464 68.199 136.945 59.8901 136.945 49.5341C136.904 39.1781 129.424 30.7488 120.214 30.7488ZM117.961 59.8098C112.733 59.8098 108.47 55.274 108.47 49.6144C108.47 43.9145 112.693 39.3788 117.961 39.3788C123.19 39.3788 127.453 43.9145 127.453 49.6144C127.413 55.274 123.19 59.8098 117.961 59.8098ZM33.0599 52.2233L31.3707 55.9161C30.6065 57.5217 29.8424 59.1674 29.1185 60.8132C28.8874 61.3182 28.6547 61.8335 28.4188 62.356C25.2043 69.475 21.3892 77.9239 13.0712 79.7189C9.04932 80.6019 2.9763 79.3978 0.72405 75.6246C-1.5282 71.8114 1.80995 67.4362 6.11336 68.4397C6.7921 68.5902 7.45954 68.9214 8.13263 69.2554C9.2543 69.812 10.3917 70.3764 11.6233 70.1255C12.7897 69.9248 13.5136 69.0819 14.4386 67.9981C15.7256 66.513 16.2887 64.9475 16.53 64.0243C16.5099 63.9842 16.4898 63.934 16.4697 63.8838C16.4496 63.8337 16.4295 63.7835 16.4093 63.7433C15.3624 61.7993 14.4481 60.0613 13.6843 58.6094C13.1864 57.6629 12.7525 56.8381 12.3875 56.157C11.6385 54.744 11.0728 53.6758 10.6329 52.845C9.34808 50.4191 9.13593 50.0185 8.5667 48.972C7.31992 46.6038 5.9927 44.3158 4.62526 42.0279C3.13717 39.5392 1.60886 36.7696 2.85564 33.8394C3.86111 31.4712 6.43511 30.267 8.88845 31.0296C11.4771 31.8115 12.6234 34.2631 13.6955 36.5559C13.8893 36.9704 14.0807 37.3797 14.2778 37.7731C16.0071 41.1848 17.6963 44.5966 19.3854 48.0084L19.3855 48.0086C19.5342 48.3479 19.7615 48.8103 20.0377 49.3723C20.2843 49.8742 20.57 50.4555 20.8736 51.0994C21.0323 51.4338 21.1833 51.745 21.3197 52.0263C21.4945 52.3866 21.6455 52.6979 21.7584 52.9458C22.5427 50.999 23.337 49.0623 24.1313 47.1255C24.9257 45.1888 25.72 43.2521 26.5042 41.3053C26.526 41.1966 26.7132 40.7813 26.9953 40.1553C27.2338 39.6262 27.5401 38.9467 27.8717 38.1745C27.9838 37.9107 28.0967 37.6369 28.2122 37.357C29.2568 34.8249 30.5127 31.7806 33.3012 30.9493C35.3121 30.3472 37.5644 31.15 38.7307 32.8359C39.334 33.6788 39.5753 34.6422 39.6155 35.6055C39.6479 37.7359 38.6139 40.022 37.7267 41.9837C37.5106 42.4615 37.3032 42.9201 37.122 43.3525C37.1137 43.3689 37.0786 43.4475 37.0154 43.5886C36.77 44.1372 36.1018 45.6306 34.9502 48.0889C34.5346 48.9703 34.1357 49.8518 33.732 50.744C33.5106 51.2333 33.2878 51.7258 33.0599 52.2233Z" fill="black"/>
<path d="M143.047 66.4159H143.426C143.613 66.4159 143.762 66.368 143.875 66.2722C143.989 66.174 144.046 66.0501 144.046 65.9006C144.046 65.7253 143.996 65.6002 143.896 65.5255C143.795 65.4483 143.636 65.4098 143.419 65.4098H143.047V66.4159ZM144.569 65.8865C144.569 66.0735 144.518 66.2394 144.418 66.3843C144.32 66.5269 144.181 66.6332 144.001 66.7033L144.835 68.0881H144.246L143.521 66.8471H143.047V68.0881H142.528V64.9646H143.443C143.831 64.9646 144.115 65.0405 144.295 65.1924C144.478 65.3443 144.569 65.5757 144.569 65.8865ZM140.863 66.5246C140.863 66.0571 140.98 65.6189 141.214 65.21C141.448 64.801 141.769 64.4785 142.178 64.2424C142.587 64.0064 143.027 63.8883 143.499 63.8883C143.967 63.8883 144.405 64.0052 144.814 64.2389C145.223 64.4726 145.546 64.794 145.782 65.2029C146.018 65.6119 146.136 66.0525 146.136 66.5246C146.136 66.985 146.022 67.4173 145.796 67.8216C145.569 68.2259 145.251 68.5496 144.842 68.7927C144.433 69.0357 143.986 69.1573 143.499 69.1573C143.016 69.1573 142.569 69.0369 142.16 68.7962C141.751 68.5531 141.432 68.2295 141.203 67.8251C140.977 67.4208 140.863 66.9873 140.863 66.5246ZM141.231 66.5246C141.231 66.9289 141.333 67.3075 141.536 67.6604C141.74 68.0109 142.017 68.2879 142.367 68.4912C142.72 68.6922 143.097 68.7927 143.499 68.7927C143.906 68.7927 144.284 68.691 144.632 68.4877C144.98 68.2844 145.256 68.0098 145.459 67.6639C145.665 67.3157 145.768 66.9359 145.768 66.5246C145.768 66.1179 145.666 65.7405 145.463 65.3922C145.259 65.044 144.984 64.7682 144.635 64.5649C144.289 64.3593 143.911 64.2564 143.499 64.2564C143.093 64.2564 142.715 64.3581 142.367 64.5614C142.019 64.7647 141.742 65.0405 141.536 65.3887C141.333 65.7346 141.231 66.1132 141.231 66.5246Z" fill="black"/>
<path d="M143.047 66.4159H143.426C143.613 66.4159 143.762 66.368 143.875 66.2722C143.989 66.174 144.046 66.0501 144.046 65.9006C144.046 65.7253 143.996 65.6002 143.896 65.5255C143.795 65.4483 143.636 65.4098 143.419 65.4098H143.047V66.4159ZM144.569 65.8865C144.569 66.0735 144.518 66.2394 144.418 66.3843C144.32 66.5269 144.181 66.6332 144.001 66.7033L144.835 68.0881H144.246L143.521 66.8471H143.047V68.0881H142.528V64.9646H143.443C143.831 64.9646 144.115 65.0405 144.295 65.1924C144.478 65.3443 144.569 65.5757 144.569 65.8865ZM140.863 66.5246C140.863 66.0571 140.98 65.6189 141.214 65.21C141.448 64.801 141.769 64.4785 142.178 64.2424C142.587 64.0064 143.027 63.8883 143.499 63.8883C143.967 63.8883 144.405 64.0052 144.814 64.2389C145.223 64.4726 145.546 64.794 145.782 65.2029C146.018 65.6119 146.136 66.0525 146.136 66.5246C146.136 66.985 146.022 67.4173 145.796 67.8216C145.569 68.2259 145.251 68.5496 144.842 68.7927C144.433 69.0357 143.986 69.1573 143.499 69.1573C143.016 69.1573 142.569 69.0369 142.16 68.7962C141.751 68.5531 141.432 68.2295 141.203 67.8251C140.977 67.4208 140.863 66.9873 140.863 66.5246ZM141.231 66.5246C141.231 66.9289 141.333 67.3075 141.536 67.6604C141.74 68.0109 142.017 68.2879 142.367 68.4912C142.72 68.6922 143.097 68.7927 143.499 68.7927C143.906 68.7927 144.284 68.691 144.632 68.4877C144.98 68.2844 145.256 68.0098 145.459 67.6639C145.665 67.3157 145.768 66.9359 145.768 66.5246C145.768 66.1179 145.666 65.7405 145.463 65.3922C145.259 65.044 144.984 64.7682 144.635 64.5649C144.289 64.3593 143.911 64.2564 143.499 64.2564C143.093 64.2564 142.715 64.3581 142.367 64.5614C142.019 64.7647 141.742 65.0405 141.536 65.3887C141.333 65.7346 141.231 66.1132 141.231 66.5246Z" fill="black"/>
</svg>
