<svg width="518" height="80" viewBox="0 0 518 80" fill="none" xmlns="http://www.w3.org/2000/svg">
<path d="M240.89 46.8416H235.189V66.6H231.798V46.8416H227.793V45.3091L231.798 44.0831V42.8368C231.798 37.3335 234.202 34.5819 239.01 34.5819C240.195 34.5819 241.585 34.8203 243.179 35.2971L242.3 38.0146C240.992 37.5924 239.875 37.3812 238.949 37.3812C237.669 37.3812 236.722 37.8103 236.109 38.6685C235.496 39.513 235.189 40.8752 235.189 42.755V44.2057H240.89V46.8416ZM264.178 55.3824C264.178 59.0331 263.258 61.8868 261.42 63.9437C259.581 65.987 257.04 67.0086 253.798 67.0086C251.796 67.0086 250.018 66.5387 248.465 65.5988C246.912 64.6589 245.714 63.3103 244.869 61.5531C244.025 59.7959 243.602 57.739 243.602 55.3824C243.602 51.7318 244.515 48.8916 246.34 46.862C248.166 44.8187 250.699 43.7971 253.941 43.7971C257.074 43.7971 259.56 44.8392 261.399 46.9233C263.252 49.0074 264.178 51.8271 264.178 55.3824ZM247.117 55.3824C247.117 58.243 247.689 60.4225 248.833 61.9209C249.977 63.4193 251.66 64.1685 253.88 64.1685C256.1 64.1685 257.783 63.4261 258.927 61.9413C260.085 60.4429 260.664 58.2566 260.664 55.3824C260.664 52.5355 260.085 50.3764 258.927 48.9053C257.783 47.4205 256.087 46.6781 253.839 46.6781C251.619 46.6781 249.943 47.4069 248.813 48.8644C247.682 50.3219 247.117 52.4946 247.117 55.3824ZM280.233 43.7971C281.227 43.7971 282.119 43.8788 282.909 44.0423L282.439 47.1889C281.513 46.9846 280.696 46.8824 279.987 46.8824C278.176 46.8824 276.623 47.618 275.329 49.0892C274.048 50.5603 273.408 52.3924 273.408 54.5856V66.6H270.016V44.2057H272.816L273.204 48.3536H273.367C274.198 46.896 275.199 45.7722 276.371 44.9822C277.542 44.1921 278.83 43.7971 280.233 43.7971ZM307.929 43.7971C308.923 43.7971 309.815 43.8788 310.605 44.0423L310.135 47.1889C309.209 46.9846 308.392 46.8824 307.683 46.8824C305.872 46.8824 304.319 47.618 303.025 49.0892C301.744 50.5603 301.104 52.3924 301.104 54.5856V66.6H297.712V44.2057H300.512L300.9 48.3536H301.063C301.894 46.896 302.895 45.7722 304.067 44.9822C305.238 44.1921 306.526 43.7971 307.929 43.7971ZM324.126 67.0086C320.816 67.0086 318.201 66.0006 316.28 63.9846C314.373 61.9686 313.42 59.1693 313.42 55.5868C313.42 51.977 314.305 49.1096 316.076 46.9846C317.86 44.8596 320.251 43.7971 323.248 43.7971C326.054 43.7971 328.274 44.7234 329.909 46.5759C331.543 48.4149 332.361 50.8464 332.361 53.8704V56.0158H316.934C317.002 58.6448 317.663 60.6404 318.916 62.0026C320.183 63.3648 321.96 64.0459 324.249 64.0459C326.66 64.0459 329.044 63.5419 331.4 62.5339V65.5579C330.202 66.0755 329.064 66.4433 327.988 66.6613C326.926 66.8928 325.638 67.0086 324.126 67.0086ZM323.207 46.6372C321.409 46.6372 319.972 47.223 318.896 48.3944C317.833 49.5659 317.206 51.1869 317.016 53.2574H328.724C328.724 51.1188 328.247 49.4842 327.293 48.3536C326.34 47.2093 324.978 46.6372 323.207 46.6372ZM352.481 60.4906C352.481 62.5747 351.705 64.1821 350.152 65.3127C348.599 66.4433 346.42 67.0086 343.614 67.0086C340.644 67.0086 338.328 66.5387 336.667 65.5988V62.4521C337.743 62.997 338.894 63.4261 340.12 63.7394C341.359 64.0527 342.551 64.2094 343.695 64.2094C345.466 64.2094 346.828 63.9301 347.782 63.3716C348.735 62.7995 349.212 61.9345 349.212 60.7767C349.212 59.9049 348.831 59.1625 348.068 58.5495C347.319 57.9229 345.848 57.1873 343.655 56.3428C341.57 55.5663 340.086 54.892 339.2 54.3199C338.328 53.7342 337.675 53.0735 337.239 52.338C336.816 51.6024 336.605 50.7238 336.605 49.7021C336.605 47.8768 337.348 46.4397 338.832 45.3908C340.317 44.3283 342.354 43.7971 344.942 43.7971C347.353 43.7971 349.709 44.2875 352.012 45.2682L350.806 48.0267C348.558 47.1004 346.522 46.6372 344.697 46.6372C343.089 46.6372 341.877 46.8892 341.06 47.3932C340.242 47.8972 339.834 48.592 339.834 49.4774C339.834 50.0767 339.983 50.5876 340.283 51.0098C340.596 51.4321 341.094 51.8339 341.775 52.2154C342.456 52.5968 343.764 53.1485 345.698 53.8704C348.354 54.8376 350.145 55.8115 351.072 56.7923C352.012 57.7731 352.481 59.0058 352.481 60.4906ZM365.124 64.2094C365.723 64.2094 366.302 64.1685 366.861 64.0868C367.419 63.9914 367.862 63.896 368.189 63.8007V66.3956C367.821 66.5727 367.276 66.7158 366.554 66.8247C365.846 66.9473 365.206 67.0086 364.634 67.0086C360.302 67.0086 358.136 64.727 358.136 60.1637V46.8416H354.928V45.2069L358.136 43.7971L359.566 39.0158H361.528V44.2057H368.025V46.8416H361.528V60.0206C361.528 61.3692 361.848 62.4045 362.488 63.1264C363.128 63.8484 364.007 64.2094 365.124 64.2094ZM386.328 66.6L385.653 63.4125H385.49C384.373 64.8155 383.256 65.769 382.139 66.2731C381.036 66.7634 379.653 67.0086 377.991 67.0086C375.771 67.0086 374.027 66.4365 372.76 65.2923C371.507 64.1481 370.881 62.5202 370.881 60.4089C370.881 55.8864 374.497 53.5162 381.73 53.2983L385.531 53.1757V51.7863C385.531 50.0291 385.149 48.735 384.387 47.9041C383.637 47.0595 382.432 46.6372 380.77 46.6372C378.904 46.6372 376.792 47.2093 374.436 48.3536L373.394 45.7586C374.497 45.1593 375.703 44.6893 377.01 44.3488C378.332 44.0082 379.653 43.838 380.974 43.838C383.644 43.838 385.619 44.4305 386.9 45.6156C388.194 46.8007 388.841 48.7009 388.841 51.3163V66.6H386.328ZM378.665 64.2094C380.777 64.2094 382.432 63.6304 383.631 62.4726C384.843 61.3147 385.449 59.6937 385.449 57.6096V55.5868L382.057 55.7298C379.36 55.8251 377.412 56.2474 376.213 56.9966C375.028 57.7322 374.436 58.8832 374.436 60.4497C374.436 61.6757 374.804 62.6088 375.539 63.249C376.288 63.8892 377.33 64.2094 378.665 64.2094ZM398.909 44.2057V58.7334C398.909 60.5587 399.324 61.9209 400.155 62.8199C400.986 63.719 402.287 64.1685 404.058 64.1685C406.401 64.1685 408.11 63.5283 409.186 62.2478C410.276 60.9674 410.821 58.8764 410.821 55.975V44.2057H414.213V66.6H411.414L410.923 63.5964H410.739C410.045 64.6997 409.077 65.5443 407.838 66.13C406.612 66.7158 405.209 67.0086 403.629 67.0086C400.904 67.0086 398.861 66.3616 397.499 65.0675C396.15 63.7735 395.476 61.7029 395.476 58.856V44.2057H398.909ZM431.514 43.7971C432.508 43.7971 433.401 43.8788 434.191 44.0423L433.721 47.1889C432.794 46.9846 431.977 46.8824 431.269 46.8824C429.457 46.8824 427.904 47.618 426.61 49.0892C425.33 50.5603 424.689 52.3924 424.689 54.5856V66.6H421.298V44.2057H424.097L424.485 48.3536H424.649C425.48 46.896 426.481 45.7722 427.652 44.9822C428.824 44.1921 430.111 43.7971 431.514 43.7971ZM452.023 66.6L451.349 63.4125H451.185C450.068 64.8155 448.951 65.769 447.834 66.2731C446.731 66.7634 445.348 67.0086 443.686 67.0086C441.466 67.0086 439.723 66.4365 438.456 65.2923C437.202 64.1481 436.576 62.5202 436.576 60.4089C436.576 55.8864 440.192 53.5162 447.426 53.2983L451.226 53.1757V51.7863C451.226 50.0291 450.845 48.735 450.082 47.9041C449.333 47.0595 448.127 46.6372 446.465 46.6372C444.599 46.6372 442.488 47.2093 440.131 48.3536L439.089 45.7586C440.192 45.1593 441.398 44.6893 442.706 44.3488C444.027 44.0082 445.348 43.838 446.67 43.838C449.339 43.838 451.315 44.4305 452.595 45.6156C453.889 46.8007 454.536 48.7009 454.536 51.3163V66.6H452.023ZM444.361 64.2094C446.472 64.2094 448.127 63.6304 449.326 62.4726C450.538 61.3147 451.144 59.6937 451.144 57.6096V55.5868L447.753 55.7298C445.055 55.8251 443.108 56.2474 441.909 56.9966C440.724 57.7322 440.131 58.8832 440.131 60.4497C440.131 61.6757 440.499 62.6088 441.235 63.249C441.984 63.8892 443.026 64.2094 444.361 64.2094ZM476.741 66.6V52.1132C476.741 50.2879 476.326 48.9257 475.495 48.0267C474.664 47.1276 473.363 46.6781 471.592 46.6781C469.249 46.6781 467.533 47.3115 466.443 48.5783C465.353 49.8452 464.808 51.9361 464.808 54.8512V66.6H461.417V44.2057H464.175L464.727 47.2706H464.89C465.585 46.1673 466.559 45.3159 467.812 44.7166C469.065 44.1036 470.461 43.7971 472.001 43.7971C474.698 43.7971 476.728 44.4509 478.09 45.7586C479.452 47.0527 480.133 49.13 480.133 51.9906V66.6H476.741ZM494.226 64.2094C494.825 64.2094 495.404 64.1685 495.963 64.0868C496.521 63.9914 496.964 63.896 497.291 63.8007V66.3956C496.923 66.5727 496.378 66.7158 495.656 66.8247C494.948 66.9473 494.308 67.0086 493.736 67.0086C489.404 67.0086 487.238 64.727 487.238 60.1637V46.8416H484.03V45.2069L487.238 43.7971L488.668 39.0158H490.63V44.2057H497.128V46.8416H490.63V60.0206C490.63 61.3692 490.95 62.4045 491.59 63.1264C492.231 63.8484 493.109 64.2094 494.226 64.2094ZM516.104 60.4906C516.104 62.5747 515.328 64.1821 513.775 65.3127C512.222 66.4433 510.042 67.0086 507.236 67.0086C504.267 67.0086 501.951 66.5387 500.289 65.5988V62.4521C501.365 62.997 502.516 63.4261 503.742 63.7394C504.982 64.0527 506.174 64.2094 507.318 64.2094C509.089 64.2094 510.451 63.9301 511.405 63.3716C512.358 62.7995 512.835 61.9345 512.835 60.7767C512.835 59.9049 512.454 59.1625 511.691 58.5495C510.941 57.9229 509.47 57.1873 507.277 56.3428C505.193 55.5663 503.708 54.892 502.823 54.3199C501.951 53.7342 501.297 53.0735 500.861 52.338C500.439 51.6024 500.228 50.7238 500.228 49.7021C500.228 47.8768 500.97 46.4397 502.455 45.3908C503.94 44.3283 505.976 43.7971 508.564 43.7971C510.976 43.7971 513.332 44.2875 515.634 45.2682L514.429 48.0267C512.181 47.1004 510.145 46.6372 508.319 46.6372C506.712 46.6372 505.5 46.8892 504.682 47.3932C503.865 47.8972 503.456 48.592 503.456 49.4774C503.456 50.0767 503.606 50.5876 503.906 51.0098C504.219 51.4321 504.716 51.8339 505.397 52.2154C506.078 52.5968 507.386 53.1485 509.32 53.8704C511.977 54.8376 513.768 55.8115 514.694 56.7923C515.634 57.7731 516.104 59.0058 516.104 60.4906Z" fill="#2B273C"/>
<path d="M165.175 47.9149L168.505 47.1511C168.575 47.1351 168.691 47.1085 168.832 47.0633C169.751 46.8178 170.538 46.2262 171.027 45.4131C171.517 44.6 171.671 43.6288 171.456 42.7042C171.452 42.6839 171.447 42.6647 171.442 42.6444C171.333 42.2012 171.141 41.7824 170.876 41.4095C170.503 40.9374 170.04 40.5422 169.515 40.2461C168.897 39.8943 168.251 39.5953 167.582 39.3525L163.929 38.0207C161.879 37.2594 159.829 36.5174 157.76 35.7936C156.418 35.3166 155.281 34.8982 154.293 34.5928C154.107 34.5353 153.901 34.478 153.734 34.4204C152.539 34.0546 151.7 33.9027 150.991 33.897C150.516 33.8793 150.044 33.9647 149.607 34.1473C149.151 34.3429 148.741 34.6323 148.405 34.9965C148.238 35.1859 148.081 35.3838 147.935 35.5896C147.797 35.7992 147.671 36.016 147.557 36.2391C147.432 36.4784 147.324 36.7266 147.234 36.9817C146.558 38.9776 146.223 41.0728 146.241 43.1802C146.255 45.0855 146.309 47.5309 147.361 49.1895C147.615 49.6151 147.955 49.9831 148.36 50.2697C149.109 50.7856 149.866 50.8541 150.653 50.9113C151.829 50.9966 152.968 50.7097 154.104 50.4492L165.166 47.9117L165.175 47.9149Z" fill="#FF1A1A"/>
<path d="M202.335 30.3044C201.423 28.4017 200.199 26.6643 198.713 25.1643C198.521 24.9739 198.315 24.7977 198.097 24.6371C197.896 24.4866 197.687 24.3466 197.471 24.2178C197.249 24.0964 197.02 23.9868 196.786 23.8896C196.324 23.7085 195.829 23.6266 195.334 23.6492C194.86 23.6756 194.397 23.8046 193.978 24.0273C193.344 24.3413 192.657 24.8464 191.743 25.6925C191.617 25.8173 191.459 25.9582 191.316 26.0911C190.563 26.797 189.725 27.6674 188.727 28.681C187.186 30.2328 185.669 31.7931 184.161 33.3706L181.462 36.1592C180.968 36.6687 180.518 37.2192 180.118 37.8047C179.776 38.2995 179.535 38.8561 179.407 39.4433C179.333 39.8937 179.344 40.354 179.44 40.8004C179.445 40.8206 179.45 40.8399 179.454 40.8601C179.669 41.7848 180.234 42.591 181.032 43.1088C181.83 43.6267 182.798 43.8158 183.732 43.6363C183.88 43.6152 183.995 43.5899 184.064 43.5728L198.462 40.2704C199.596 40.0101 200.748 39.7716 201.767 39.1828C202.45 38.7883 203.1 38.3972 203.546 37.6073C203.784 37.1734 203.928 36.6943 203.968 36.2011C204.187 34.2455 203.16 32.0235 202.335 30.3044Z" fill="#FF1A1A"/>
<path d="M176.567 36.3363C177.609 35.0315 177.604 33.0853 177.696 31.4944C178.005 26.1787 178.331 20.8624 178.588 15.5438C178.686 13.5292 178.902 11.5421 178.78 9.51204C178.679 7.83731 178.665 5.9146 177.603 4.53933C175.728 2.11416 171.735 2.30966 169.01 2.68306C168.176 2.79776 167.34 2.95222 166.51 3.14989C165.681 3.34756 164.861 3.56353 164.058 3.81912C161.444 4.6702 157.77 6.23346 157.15 9.23513C156.801 10.9321 157.634 12.669 158.28 14.2185C159.064 16.0969 160.133 17.7892 161.108 19.5575C163.686 24.226 166.311 28.8654 168.929 33.5097C169.711 34.896 170.563 36.6519 172.074 37.3712C172.174 37.4148 172.276 37.4533 172.38 37.4866C173.057 37.7428 173.795 37.7927 174.5 37.63C174.543 37.6202 174.585 37.6106 174.626 37.6011C175.278 37.4251 175.867 37.0726 176.329 36.5827C176.413 36.5048 176.492 36.4225 176.567 36.3363Z" fill="#FF1A1A"/>
<path d="M175.292 50.5542C174.885 49.9829 174.306 49.5546 173.64 49.3304C172.974 49.1063 172.254 49.0977 171.584 49.3061C171.426 49.3581 171.273 49.4214 171.124 49.4956C170.895 49.6118 170.676 49.7476 170.47 49.9015C169.871 50.3438 169.366 50.919 168.907 51.4955C168.79 51.6427 168.684 51.8387 168.545 51.9643L166.233 55.1361C164.922 56.913 163.629 58.6943 162.347 60.5041C161.511 61.6723 160.788 62.659 160.216 63.5319C160.108 63.6964 159.995 63.8799 159.893 64.0261C159.208 65.0828 158.82 65.8539 158.621 66.5412C158.472 66.9977 158.425 67.4815 158.484 67.9584C158.548 68.4551 158.716 68.933 158.978 69.3608C159.117 69.5755 159.266 69.7831 159.426 69.9828C159.593 70.1748 159.769 70.3578 159.955 70.5309C160.154 70.7198 160.366 70.8937 160.591 71.0513C162.19 72.1607 163.941 72.9584 165.781 73.5754C167.313 74.0834 168.906 74.3881 170.517 74.4815C170.791 74.4955 171.066 74.4899 171.339 74.4645C171.592 74.4427 171.844 74.4077 172.094 74.3596C172.343 74.3018 172.589 74.2308 172.831 74.1468C173.301 73.972 173.729 73.7005 174.088 73.3501C174.427 73.0116 174.688 72.6033 174.852 72.1536C175.119 71.489 175.295 70.6451 175.409 69.392C175.419 69.2138 175.444 69.0002 175.462 68.8043C175.552 67.7645 175.593 66.5432 175.659 65.1073C175.77 62.8988 175.857 60.7001 175.925 58.4951C175.925 58.4951 176.071 54.5765 176.07 54.5744C176.103 53.6714 176.075 52.6708 175.822 51.7714C175.712 51.3403 175.533 50.9294 175.292 50.5542V50.5542Z" fill="#FF1A1A"/>
<path d="M201.456 56.6945C200.972 56.1659 200.287 55.6388 199.206 54.987C199.051 54.9002 198.868 54.7843 198.699 54.6834C197.799 54.1437 196.716 53.5757 195.45 52.8897C193.505 51.8244 191.559 50.7859 189.594 49.7559L186.123 47.9193C185.943 47.8668 185.76 47.7371 185.591 47.6555C184.924 47.3373 184.217 47.0401 183.483 46.9035C183.23 46.8548 182.974 46.8281 182.717 46.8235C182.551 46.8213 182.385 46.8313 182.22 46.8531C181.527 46.9596 180.885 47.2817 180.386 47.7735C179.888 48.2653 179.557 48.9018 179.443 49.5922C179.391 50.0313 179.407 50.4759 179.492 50.9101C179.662 51.8303 180.075 52.7408 180.503 53.5381L182.359 56.9999C183.391 58.9524 184.436 60.8935 185.508 62.8286C186.199 64.091 186.774 65.171 187.313 66.0665C187.415 66.2349 187.531 66.4162 187.618 66.5721C188.274 67.6486 188.8 68.3261 189.334 68.8123C189.68 69.145 190.094 69.3985 190.548 69.555C191.025 69.713 191.53 69.7693 192.03 69.7204C192.284 69.6906 192.537 69.6472 192.786 69.5906C193.032 69.525 193.275 69.4467 193.512 69.3559C193.769 69.2598 194.018 69.1453 194.258 69.0133C195.665 68.2277 196.963 67.2602 198.116 66.136C199.5 64.7794 200.723 63.2998 201.673 61.6055C201.805 61.3659 201.92 61.117 202.016 60.8607C202.105 60.6236 202.183 60.3821 202.248 60.1371C202.304 59.8881 202.347 59.6363 202.376 59.3828C202.423 58.8849 202.365 58.3826 202.204 57.9085C202.047 57.4542 201.792 57.0398 201.456 56.6945V56.6945Z" fill="#FF1A1A"/>
<path fill-rule="evenodd" clip-rule="evenodd" d="M81.9266 23.042C81.9266 20.1921 84.2592 17.864 87.0745 17.864C89.8496 17.864 92.1019 20.1921 92.2225 23.0822V63.5027C92.2225 66.3526 89.8899 68.6807 87.0745 68.6807C84.1788 68.6807 81.9266 66.3526 81.9266 63.5027V23.042ZM77.1391 48.0088C77.0989 48.8115 76.8978 50.2967 75.8521 51.3805C74.726 52.5445 73.1977 52.8255 72.3129 52.8255C68.6343 52.8456 64.9557 52.8556 61.277 52.8656L61.2728 52.8656C57.5928 52.8757 53.9128 52.8857 50.2328 52.9058C50.5546 53.9093 51.1981 55.4346 52.6459 56.8395C53.5307 57.6824 54.3753 58.1641 54.7373 58.3648C55.1797 58.6457 56.708 59.4485 58.5983 59.4485C60.6092 59.4485 62.3788 58.8063 64.1083 57.9232L64.2528 57.8487C65.4545 57.229 66.6948 56.5893 68.0095 56.3578C69.2965 56.1571 70.6639 56.3979 71.6694 57.281C72.8759 58.3246 73.3586 59.8499 72.9161 61.4154C72.3933 63.1815 70.9052 64.7068 69.3367 65.63C68.4519 66.1518 67.4866 66.5934 66.5214 66.9546C65.2746 67.3961 63.9876 67.7173 62.7006 67.918C61.4136 68.1187 60.0864 68.1989 58.7592 68.1588H58.7591C58.1156 68.1588 57.4319 68.1588 56.7482 68.0785C56.0243 67.9982 55.3004 67.8377 54.6166 67.6771C53.4905 67.4363 52.4448 67.075 51.3991 66.5934C50.3937 66.1518 49.3882 65.5899 48.4632 64.9476C47.5381 64.3054 46.6936 63.5428 45.8892 62.74C45.125 61.9372 44.4011 61.0541 43.7576 60.0908C41.5858 56.7993 40.5803 52.7452 40.7814 48.8115C40.9423 44.9582 42.2293 41.1048 44.562 37.9739C44.8146 37.5817 45.1063 37.2482 45.3826 36.9324L45.3828 36.9322L45.3833 36.9316C45.5027 36.7952 45.6191 36.662 45.7283 36.5289C48.609 33.0237 52.4576 31.9144 54.0451 31.4568L54.134 31.4311C58.6787 30.1467 62.4593 30.9896 63.9876 31.4311C64.7517 31.6318 69.0551 32.9564 72.3933 36.5289C72.5542 36.6894 72.9966 37.2112 73.5596 37.9739C75.6743 40.841 76.4036 43.5106 76.6507 44.415L76.6565 44.4363C76.8978 45.3194 77.1391 46.5236 77.1391 48.0088ZM53.5307 41.3857C51.1981 43.2723 50.5546 45.6807 50.3937 46.4433H67.929C67.7682 45.7208 67.0844 43.2723 64.7517 41.3857C62.3788 39.4992 59.8853 39.3788 59.1211 39.3788C58.357 39.3788 55.8634 39.4992 53.5307 41.3857ZM120.214 30.7488C115.629 30.7488 111.446 32.7959 108.47 36.1275V36.0071C108.349 33.3177 106.097 31.1502 103.362 31.1502C100.507 31.1502 98.2141 33.4381 98.2141 36.288V74.8621C98.2141 77.712 100.507 80 103.362 80C106.218 80 108.51 77.712 108.51 74.8621V73.377V62.8203C111.486 66.1117 115.629 68.199 120.254 68.199C129.464 68.199 136.945 59.8901 136.945 49.5341C136.904 39.1781 129.424 30.7488 120.214 30.7488ZM117.961 59.8098C112.733 59.8098 108.47 55.274 108.47 49.6144C108.47 43.9145 112.693 39.3788 117.961 39.3788C123.19 39.3788 127.453 43.9145 127.453 49.6144C127.413 55.274 123.19 59.8098 117.961 59.8098ZM33.0599 52.2233L31.3707 55.9161C30.6065 57.5217 29.8424 59.1674 29.1185 60.8132C28.8874 61.3182 28.6547 61.8335 28.4188 62.356C25.2043 69.475 21.3892 77.9239 13.0712 79.7189C9.04932 80.6019 2.9763 79.3978 0.72405 75.6246C-1.5282 71.8114 1.80995 67.4362 6.11336 68.4397C6.7921 68.5902 7.45954 68.9214 8.13263 69.2554C9.2543 69.812 10.3917 70.3764 11.6233 70.1255C12.7897 69.9248 13.5136 69.0819 14.4386 67.9981C15.7256 66.513 16.2887 64.9475 16.53 64.0243C16.5099 63.9842 16.4898 63.934 16.4697 63.8838C16.4496 63.8337 16.4295 63.7835 16.4093 63.7433C15.3624 61.7993 14.4481 60.0613 13.6843 58.6094C13.1864 57.6629 12.7525 56.8381 12.3875 56.157C11.6385 54.744 11.0728 53.6758 10.6329 52.845C9.34808 50.4191 9.13593 50.0185 8.5667 48.972C7.31992 46.6038 5.9927 44.3158 4.62526 42.0279C3.13717 39.5392 1.60886 36.7696 2.85564 33.8394C3.86111 31.4712 6.43511 30.267 8.88845 31.0296C11.4771 31.8115 12.6234 34.2631 13.6955 36.5559C13.8893 36.9704 14.0807 37.3797 14.2778 37.7731C16.0071 41.1848 17.6963 44.5966 19.3854 48.0084L19.3855 48.0086C19.5342 48.3479 19.7615 48.8103 20.0377 49.3723C20.2843 49.8742 20.57 50.4555 20.8736 51.0994C21.0323 51.4338 21.1833 51.745 21.3197 52.0263C21.4945 52.3866 21.6455 52.6979 21.7584 52.9458C22.5427 50.999 23.337 49.0623 24.1313 47.1255C24.9257 45.1888 25.72 43.2521 26.5042 41.3053C26.526 41.1966 26.7132 40.7813 26.9953 40.1553C27.2338 39.6262 27.5401 38.9467 27.8717 38.1745C27.9838 37.9107 28.0967 37.6369 28.2122 37.357C29.2568 34.8249 30.5127 31.7806 33.3012 30.9493C35.3121 30.3472 37.5644 31.15 38.7307 32.8359C39.334 33.6788 39.5753 34.6422 39.6155 35.6055C39.6479 37.7359 38.6139 40.022 37.7267 41.9837C37.5106 42.4615 37.3032 42.9201 37.122 43.3525C37.1137 43.3689 37.0786 43.4475 37.0154 43.5886C36.77 44.1372 36.1018 45.6306 34.9502 48.0889C34.5346 48.9703 34.1357 49.8518 33.732 50.744C33.5106 51.2333 33.2878 51.7258 33.0599 52.2233Z" fill="black"/>
<path d="M143.047 66.4159H143.426C143.613 66.4159 143.762 66.368 143.875 66.2722C143.989 66.174 144.046 66.0501 144.046 65.9006C144.046 65.7253 143.996 65.6002 143.896 65.5255C143.795 65.4483 143.636 65.4098 143.419 65.4098H143.047V66.4159ZM144.569 65.8865C144.569 66.0735 144.518 66.2394 144.418 66.3843C144.32 66.5269 144.181 66.6332 144.001 66.7033L144.835 68.0881H144.246L143.521 66.8471H143.047V68.0881H142.528V64.9646H143.443C143.831 64.9646 144.115 65.0405 144.295 65.1924C144.478 65.3443 144.569 65.5757 144.569 65.8865ZM140.863 66.5246C140.863 66.0571 140.98 65.6189 141.214 65.21C141.448 64.801 141.769 64.4785 142.178 64.2424C142.587 64.0064 143.027 63.8883 143.499 63.8883C143.967 63.8883 144.405 64.0052 144.814 64.2389C145.223 64.4726 145.546 64.794 145.782 65.2029C146.018 65.6119 146.136 66.0525 146.136 66.5246C146.136 66.985 146.022 67.4173 145.796 67.8216C145.569 68.2259 145.251 68.5496 144.842 68.7927C144.433 69.0357 143.986 69.1573 143.499 69.1573C143.016 69.1573 142.569 69.0369 142.16 68.7962C141.751 68.5531 141.432 68.2295 141.203 67.8251C140.977 67.4208 140.863 66.9873 140.863 66.5246ZM141.231 66.5246C141.231 66.9289 141.333 67.3075 141.536 67.6604C141.74 68.0109 142.017 68.2879 142.367 68.4912C142.72 68.6922 143.097 68.7927 143.499 68.7927C143.906 68.7927 144.284 68.691 144.632 68.4877C144.98 68.2844 145.256 68.0098 145.459 67.6639C145.665 67.3157 145.768 66.9359 145.768 66.5246C145.768 66.1179 145.666 65.7405 145.463 65.3922C145.259 65.044 144.984 64.7682 144.635 64.5649C144.289 64.3593 143.911 64.2564 143.499 64.2564C143.093 64.2564 142.715 64.3581 142.367 64.5614C142.019 64.7647 141.742 65.0405 141.536 65.3887C141.333 65.7346 141.231 66.1132 141.231 66.5246Z" fill="black"/>
<path d="M143.047 66.4159H143.426C143.613 66.4159 143.762 66.368 143.875 66.2722C143.989 66.174 144.046 66.0501 144.046 65.9006C144.046 65.7253 143.996 65.6002 143.896 65.5255C143.795 65.4483 143.636 65.4098 143.419 65.4098H143.047V66.4159ZM144.569 65.8865C144.569 66.0735 144.518 66.2394 144.418 66.3843C144.32 66.5269 144.181 66.6332 144.001 66.7033L144.835 68.0881H144.246L143.521 66.8471H143.047V68.0881H142.528V64.9646H143.443C143.831 64.9646 144.115 65.0405 144.295 65.1924C144.478 65.3443 144.569 65.5757 144.569 65.8865ZM140.863 66.5246C140.863 66.0571 140.98 65.6189 141.214 65.21C141.448 64.801 141.769 64.4785 142.178 64.2424C142.587 64.0064 143.027 63.8883 143.499 63.8883C143.967 63.8883 144.405 64.0052 144.814 64.2389C145.223 64.4726 145.546 64.794 145.782 65.2029C146.018 65.6119 146.136 66.0525 146.136 66.5246C146.136 66.985 146.022 67.4173 145.796 67.8216C145.569 68.2259 145.251 68.5496 144.842 68.7927C144.433 69.0357 143.986 69.1573 143.499 69.1573C143.016 69.1573 142.569 69.0369 142.16 68.7962C141.751 68.5531 141.432 68.2295 141.203 67.8251C140.977 67.4208 140.863 66.9873 140.863 66.5246ZM141.231 66.5246C141.231 66.9289 141.333 67.3075 141.536 67.6604C141.74 68.0109 142.017 68.2879 142.367 68.4912C142.72 68.6922 143.097 68.7927 143.499 68.7927C143.906 68.7927 144.284 68.691 144.632 68.4877C144.98 68.2844 145.256 68.0098 145.459 67.6639C145.665 67.3157 145.768 66.9359 145.768 66.5246C145.768 66.1179 145.666 65.7405 145.463 65.3922C145.259 65.044 144.984 64.7682 144.635 64.5649C144.289 64.3593 143.911 64.2564 143.499 64.2564C143.093 64.2564 142.715 64.3581 142.367 64.5614C142.019 64.7647 141.742 65.0405 141.536 65.3887C141.333 65.7346 141.231 66.1132 141.231 66.5246Z" fill="black"/>
</svg>
